# Rhino

mtllib Walker.mtl
usemtl diffuse_Black
v 12.100133895874023 0.42523393034934998 34.581199645996094
v 12.100133895874023 0.54047012329101563 34.581199645996094
v 12.67025089263916 0.42523393034934998 34.581199645996094
v 12.67025089263916 0.54047012329101563 34.581199645996094
v 12.67025089263916 0.42523393034934998 34.581199645996094
v 12.67025089263916 0.54047012329101563 34.581199645996094
v 12.67025089263916 0.42523393034934998 34.021926879882813
v 12.67025089263916 0.54047012329101563 34.021926879882813
v 12.67025089263916 0.42523393034934998 34.021926879882813
v 12.67025089263916 0.54047012329101563 34.021926879882813
v 12.100133895874023 0.42523393034934998 34.021926879882813
v 12.100133895874023 0.54047012329101563 34.021926879882813
v 12.100133895874023 0.42523393034934998 34.021926879882813
v 12.100133895874023 0.54047012329101563 34.021926879882813
v 12.100133895874023 0.42523393034934998 34.581199645996094
v 12.100133895874023 0.54047012329101563 34.581199645996094
v 12.100133895874023 0.54047012329101563 34.581199645996094
v 12.100133895874023 0.54047012329101563 34.021926879882813
v 12.67025089263916 0.54047012329101563 34.581199645996094
v 12.67025089263916 0.54047012329101563 34.021926879882813
v 11.999166488647461 0 34.021926879882813
v 12.100133895874023 0 34.021926879882813
v 12.100133895874023 0 34.581947326660156
v 11.999166488647461 0 34.581947326660156
v 11.999166488647461 0 34.80523681640625
v 12.67025089263916 0 34.80523681640625
v 12.67025089263916 0 33.786834716796875
v 11.999166488647461 0 33.786834716796875
v 11.999166488647461 0 34.021926879882813
v 11.999166488647461 0.42523393034934998 34.021926879882813
v 12.100133895874023 0 34.021926879882813
v 12.100133895874023 0.42523393034934998 34.021926879882813
v 12.100133895874023 0 34.021926879882813
v 12.100133895874023 0.42523393034934998 34.021926879882813
v 12.100133895874023 0 34.581947326660156
v 12.100133895874023 0.42523393034934998 34.581199645996094
v 12.100133895874023 0 34.581947326660156
v 12.100133895874023 0.42523393034934998 34.581199645996094
v 11.999166488647461 0 34.581947326660156
v 11.999166488647461 0.42523393034934998 34.581947326660156
v 11.999166488647461 0 34.581947326660156
v 11.999166488647461 0.42523393034934998 34.581947326660156
v 11.999166488647461 0 34.80523681640625
v 11.999166488647461 0.42523393034934998 34.80523681640625
v 11.999166488647461 0 34.80523681640625
v 11.999166488647461 0.42523393034934998 34.80523681640625
v 12.67025089263916 0 34.80523681640625
v 12.67025089263916 0.42523393034934998 34.80523681640625
v 12.67025089263916 0 34.80523681640625
v 12.67025089263916 0.42523393034934998 34.80523681640625
v 12.67025089263916 0 33.786834716796875
v 12.67025089263916 0.42523393034934998 33.786834716796875
v 12.67025089263916 0.42523393034934998 34.021926879882813
v 12.67025089263916 0.42523393034934998 34.581199645996094
v 12.67025089263916 0 33.786834716796875
v 12.67025089263916 0.42523393034934998 33.786834716796875
v 11.999166488647461 0 33.786834716796875
v 11.999166488647461 0.42523393034934998 33.786834716796875
v 11.999166488647461 0 33.786834716796875
v 11.999166488647461 0.42523393034934998 33.786834716796875
v 11.999166488647461 0 34.021926879882813
v 11.999166488647461 0.42523393034934998 34.021926879882813
v 12.100133895874023 0.42523393034934998 34.021926879882813
v 12.67025089263916 0.42523393034934998 34.021926879882813
v 11.999166488647461 0.42523393034934998 34.021926879882813
v 12.67025089263916 0.42523393034934998 33.786834716796875
v 11.999166488647461 0.42523393034934998 33.786834716796875
v 12.67025089263916 0.42523393034934998 34.581199645996094
v 12.100133895874023 0.42523393034934998 34.581199645996094
v 11.999166488647461 0.42523393034934998 34.581947326660156
v 11.999166488647461 0.42523393034934998 34.80523681640625
v 12.67025089263916 0.42523393034934998 34.80523681640625
vt 0.33594760298728943 0.16048753261566162
vt 0.33594760298728943 0.2136538028717041
vt 0.60622799396514893 0.16048753261566162
vt 0.60622799396514893 0.2136538028717041
vt 0 0.6956021785736084
vt 0 0.75023329257965088
vt 0.26513949036598206 0.6956021785736084
vt 0.26513949036598206 0.75023329257965088
vt 0.33594760298728943 0.10585641860961914
vt 0.33594760298728943 0.15902268886566162
vt 0.60622799396514893 0.10585641860961914
vt 0.60622799396514893 0.15902268886566162
vt 0 0.63662153482437134
vt 0 0.69125264883041382
vt 0.26513949036598206 0.63662153482437134
vt 0.26513949036598206 0.69125264883041382
vt 0.31814724206924438 0.73486047983169556
vt 0.31814724206924438 0.99853515625
vt 0.58842760324478149 0.73486047983169556
vt 0.58842760324478149 0.99853515625
vt 0.63629448413848877 0.37617900967597961
vt 0.68394094705581665 0.37617900967597961
vt 0.68394094705581665 0.11068443953990936
vt 0.63629448413848877 0.11068443953990936
vt 0.63629448413848877 0.0048280241899192333
vt 0.95297688245773315 0.0048280241899192333
vt 0.95297688245773315 0.48763039708137512
vt 0.63629448413848877 0.48763039708137512
vt 0.20159463584423065 0.58494371175765991
vt 0 0.58494371175765991
vt 0.20159463584423065 0.63281059265136719
vt 0 0.63281059265136719
vt 0.41369280219078064 0.2151186466217041
vt 0.21209816634654999 0.2151186466217041
vt 0.41369280219078064 0.48061323165893555
vt 0.21209816634654999 0.48061323165893555
vt 0.20159463584423065 0.53326588869094849
vt 0 0.53326588869094849
vt 0.20159463584423065 0.58113276958465576
vt 0 0.58113276958465576
vt 0.53754222393035889 0
vt 0.33594760298728943 0
vt 0.53754222393035889 0.10439157485961914
vt 0.33594760298728943 0.10439157485961914
vt 0.31814724206924438 0.53326588869094849
vt 0.31814724206924438 0.73339563608169556
vt 0.63482964038848877 0.53326588869094849
vt 0.63482964038848877 0.73339563608169556
vt 0.20159463584423065 0
vt 0 0
vt 0.20159463584423065 0.48280239105224609
vt 0 0.48280239105224609
vt 0 0.37135100364685059
vt 0 0.10621150583028793
vt 0.62579095363616943 0.2151186466217041
vt 0.42419633269309998 0.2151186466217041
vt 0.62579095363616943 0.53180104494094849
vt 0.42419633269309998 0.53180104494094849
vt 0.21209816634654999 0
vt 0.21209816634654999 0.20159463584423065
vt 0.3235495388507843 0
vt 0.3235495388507843 0.20159463584423065
vt 0.047646466642618179 0.87446284294128418
vt 0.31668239831924438 0.87446284294128418
vt 0 0.87446284294128418
vt 0.31668239831924438 0.98591423034667969
vt 0 0.98591423034667969
vt 0.31668239831924438 0.86562234163284302
vt 0.047646466642618179 0.86544477939605713
vt 0 0.86526721715927124
vt 0 0.7594107985496521
vt 0.31668239831924438 0.7594107985496521
vn 0 0 1
vn 0 0 1
vn 0 0 1
vn 0 0 1
vn 1 0 0
vn 1 0 0
vn 1 0 0
vn 1 0 0
vn 0 0 -1
vn 0 0 -1
vn 0 0 -1
vn 0 0 -1
vn -1 0 0
vn -1 0 0
vn -1 0 0
vn -1 0 0
vn 0 1 0
vn 0 1 0
vn 0 1 0
vn 0 1 0
vn 0 -1 0
vn 0 -1 0
vn 0 -1 0
vn 0 -1 0
vn 0 -1 0
vn 0 -1 0
vn 0 -1 0
vn 0 -1 0
vn 0 0 1
vn 0 0 1
vn 0 0 1
vn 0 0 1
vn -1 0 0
vn -1 0 0
vn -1 0 0
vn -1 0 0
vn 0 0 -1
vn 0 0 -1
vn 0 0 -1
vn 0 0 -1
vn -1 0 0
vn -1 0 0
vn -1 0 0
vn -1 0 0
vn 0 0 1
vn 0 0 1
vn 0 0 1
vn 0 0 1
vn 1 0 0
vn 1 0 0
vn 1 0 0
vn 1 0 0
vn 1 0 0
vn 1 0 0
vn 0 0 -1
vn 0 0 -1
vn 0 0 -1
vn 0 0 -1
vn -1 0 0
vn -1 0 0
vn -1 0 0
vn -1 0 0
vn 0 1 0
vn 0 1 0
vn 0 1 0
vn 0 1 0
vn 0 1 0
vn 0 1 0
vn 0 1 0
vn 0 1 0
vn 0 1 0
vn 0 1 0
f 2/2/2 1/1/1 3/3/3 4/4/4
f 6/6/6 5/5/5 7/7/7 8/8/8
f 10/10/10 9/9/9 11/11/11 12/12/12
f 14/14/14 13/13/13 15/15/15 16/16/16
f 18/18/18 17/17/17 19/19/19 20/20/20
f 23/23/23 25/25/25 24/24/24
f 21/21/21 28/28/28 22/22/22
f 22/22/22 27/27/27 26/26/26 23/23/23
f 25/25/25 23/23/23 26/26/26
f 28/28/28 27/27/27 22/22/22
f 30/30/30 29/29/29 31/31/31 32/32/32
f 34/34/34 33/33/33 35/35/35 36/36/36
f 38/38/38 37/37/37 39/39/39 40/40/40
f 42/42/42 41/41/41 43/43/43 44/44/44
f 46/46/46 45/45/45 47/47/47 48/48/48
f 50/50/50 49/49/49 54/54/54
f 53/53/53 54/54/54 49/49/49 51/51/51
f 52/52/52 53/53/53 51/51/51
f 56/56/56 55/55/55 57/57/57 58/58/58
f 60/60/60 59/59/59 61/61/61 62/62/62
f 63/63/63 67/67/67 65/65/65
f 63/63/63 64/64/64 66/66/66 67/67/67
f 69/69/69 70/70/70 71/71/71
f 68/68/68 69/69/69 72/72/72
f 71/71/71 72/72/72 69/69/69
